<svg width="411.372" height="53.964" viewBox="0 0 411.372 53.964"
    xmlns="http://www.w3.org/2000/svg">
    <defs>
        <linearGradient id="grad1" x1="0%" y1="0%" x2="0%" y2="100%">
            <stop offset="0%" style="stop-color:rgb(2, 36, 94);stop-opacity:1" />
            <stop offset="100%" style="stop-color:rgb(23, 113, 210);stop-opacity:1" />
        </linearGradient>
    </defs>
    <g id="svgGroup" stroke-linecap="round" fill-rule="evenodd" font-size="9pt" stroke="url(#grad1)" stroke-width="0.25mm" fill="url(#grad1)" style="stroke:url(#grad1);stroke-width:0.25mm;fill:url(#grad1)">
        <path d="M 3.564 50.076 L 15.084 50.076 A 42.28 42.28 0 0 0 18.707 49.931 Q 22.157 49.633 24.552 48.726 Q 27.438 47.633 29.014 45.831 A 7.581 7.581 0 0 0 29.682 44.946 Q 31.248 42.516 31.248 39.168 Q 31.248 33.48 27.306 31.104 Q 23.364 28.728 16.344 28.728 L 2.808 28.728 L 2.808 25.632 L 16.596 25.632 A 23.302 23.302 0 0 0 19.626 25.447 Q 22.314 25.094 24.228 24.066 A 11.632 11.632 0 0 0 26.545 22.455 A 9.016 9.016 0 0 0 28.476 19.998 Q 29.808 17.496 29.808 14.616 A 12.868 12.868 0 0 0 29.539 11.889 Q 28.895 8.923 26.712 7.362 A 10.232 10.232 0 0 0 23.854 5.97 Q 21.282 5.148 17.64 5.148 L 3.564 5.148 L 3.564 12.078 L 3.564 19.476 L 3.564 35.82 L 3.564 43.182 L 3.564 50.076 Z M 0 36.18 L 0 19.08 L 0 10.296 L 0 1.944 L 8.478 1.944 L 17.892 1.944 A 33.194 33.194 0 0 1 20.987 2.081 Q 23.116 2.28 24.858 2.772 A 15.693 15.693 0 0 1 27.349 3.696 A 11.487 11.487 0 0 1 29.718 5.184 Q 31.644 6.768 32.58 9.036 Q 33.516 11.304 33.516 14.184 A 15.779 15.779 0 0 1 33.263 17.077 A 11.819 11.819 0 0 1 32.364 19.926 Q 31.212 22.392 29.214 24.048 Q 27.216 25.704 24.696 26.568 L 24.696 27.072 A 14.564 14.564 0 0 1 28.395 28.279 A 17.257 17.257 0 0 1 29.466 28.836 A 10.58 10.58 0 0 1 32.775 31.797 A 12.877 12.877 0 0 1 33.39 32.706 Q 34.956 35.244 34.956 39.312 A 14.908 14.908 0 0 1 34.297 43.781 A 13.861 13.861 0 0 1 33.948 44.766 Q 32.94 47.304 30.636 49.212 A 13.094 13.094 0 0 1 28.183 50.795 Q 26.963 51.412 25.49 51.894 A 24.707 24.707 0 0 1 24.48 52.2 A 25.941 25.941 0 0 1 21.113 52.889 Q 19.385 53.133 17.391 53.225 A 54.232 54.232 0 0 1 14.904 53.28 L 8.532 53.28 L 3.438 53.28 L 0 53.28 L 0 44.91 L 0 36.18 Z" id="0" vector-effect="non-scaling-stroke"/>
        <path d="M 47.412 53.28 L 43.812 53.28 Q 44.352 49.032 44.874 44.946 Q 45.396 40.86 45.972 36.036 L 48.06 19.224 Q 48.672 14.508 49.158 10.476 Q 49.644 6.444 50.22 1.944 L 53.82 1.944 A 1878.661 1878.661 0 0 1 58.141 12.252 A 1704.098 1704.098 0 0 1 58.734 13.68 Q 61.092 19.368 63.396 25.02 L 72.648 47.232 L 73.008 47.232 L 82.224 25.02 Q 84.564 19.332 86.904 13.662 A 3703.703 3703.703 0 0 1 91.137 3.45 A 4084.535 4084.535 0 0 1 91.764 1.944 L 95.4 1.944 Q 95.976 6.372 96.444 10.404 Q 96.912 14.436 97.488 19.188 L 99.54 36.216 Q 100.116 40.86 100.602 44.892 Q 101.088 48.924 101.592 53.28 L 98.136 53.28 Q 97.2 45.684 96.372 38.808 Q 95.544 31.932 94.824 25.992 L 92.736 8.928 L 92.448 8.928 L 84.816 27.36 Q 82.044 34.02 79.254 40.752 Q 76.464 47.484 74.052 53.28 L 71.496 53.28 Q 70.02 49.68 68.22 45.324 Q 66.42 40.968 64.512 36.378 A 11622.592 11622.592 0 0 0 61.029 28.009 A 10654.626 10654.626 0 0 0 60.804 27.468 L 53.1 8.928 L 52.812 8.928 L 50.724 25.992 Q 50.004 31.932 49.176 38.808 Q 48.348 45.684 47.412 53.28 Z" id="1" vector-effect="non-scaling-stroke"/>
        <path d="M 129.636 53.28 L 124.668 53.28 Q 123.552 49.464 122.238 45.108 Q 120.924 40.752 119.808 37.044 L 114.984 21.024 Q 113.724 16.74 112.158 11.592 Q 110.592 6.444 109.26 1.944 L 113.148 1.944 Q 114.912 7.92 116.856 14.472 Q 118.8 21.024 120.528 26.964 L 127.044 49.068 L 127.548 49.068 L 133.848 26.676 Q 134.928 22.86 136.116 18.612 Q 137.304 14.364 138.51 10.08 Q 139.716 5.796 140.796 1.944 L 145.584 1.944 Q 147.276 7.92 149.112 14.346 A 8292.937 8292.937 0 0 0 152.242 25.275 A 7505.758 7505.758 0 0 0 152.676 26.784 L 159.048 49.068 L 159.552 49.068 L 166.176 26.676 Q 167.868 20.844 169.812 14.292 Q 171.756 7.74 173.448 1.944 L 177.336 1.944 Q 175.932 6.516 174.438 11.538 Q 172.944 16.56 171.612 20.88 L 166.752 37.044 Q 165.6 40.896 164.304 45.234 Q 163.008 49.572 161.892 53.28 L 156.816 53.28 Q 155.16 47.484 153.27 41.004 Q 151.38 34.524 149.76 28.872 L 143.388 6.804 L 142.92 6.804 L 136.62 28.872 Q 135 34.524 133.146 41.04 Q 131.292 47.556 129.636 53.28 Z" id="2" vector-effect="non-scaling-stroke"/>
        <path d="M 184.32 33.552 L 184.32 30.42 L 189.738 30.42 L 194.616 30.42 L 199.494 30.42 L 204.912 30.42 L 204.912 33.552 L 199.494 33.552 L 194.616 33.552 L 189.738 33.552 L 184.32 33.552 Z" id="3" vector-effect="non-scaling-stroke"/>
        <path d="M 248.004 53.28 L 217.296 53.28 L 217.296 44.91 L 217.296 36.216 L 217.296 19.08 L 217.296 10.296 L 217.296 1.944 L 220.896 1.944 L 220.896 10.296 L 220.896 19.08 L 220.896 35.676 L 220.896 44.406 L 220.896 52.776 L 219.348 49.968 L 228.42 49.968 L 236.088 49.968 L 242.226 49.968 L 248.004 49.968 L 248.004 53.28 Z" id="4" vector-effect="non-scaling-stroke"/>
        <path d="M 261.144 53.28 L 257.832 53.28 L 257.832 45.522 L 257.832 37.404 L 257.832 33.804 L 257.832 28.152 L 257.832 22.914 L 257.832 17.676 L 261.144 17.532 L 261.144 22.788 L 261.144 28.08 L 261.144 33.804 L 261.144 37.404 L 261.144 45.522 L 261.144 53.28 Z M 259.344 7.956 Q 257.976 7.956 257.076 7.074 A 2.795 2.795 0 0 1 256.374 5.898 Q 256.238 5.469 256.195 4.952 A 5.962 5.962 0 0 1 256.176 4.464 A 5.743 5.743 0 0 1 256.255 3.476 Q 256.351 2.931 256.561 2.502 A 2.605 2.605 0 0 1 257.076 1.782 A 3.045 3.045 0 0 1 258.848 0.937 A 4.21 4.21 0 0 1 259.416 0.9 A 3.749 3.749 0 0 1 260.456 1.037 A 2.879 2.879 0 0 1 261.738 1.8 Q 262.475 2.552 262.596 3.908 A 6.257 6.257 0 0 1 262.62 4.464 A 5.397 5.397 0 0 1 262.534 5.461 Q 262.429 6.02 262.195 6.455 A 2.623 2.623 0 0 1 261.738 7.074 A 2.934 2.934 0 0 1 260.227 7.87 A 4.304 4.304 0 0 1 259.344 7.956 Z" id="5" vector-effect="non-scaling-stroke"/>
        <path d="M 278.784 53.28 L 275.436 53.28 L 275.436 45.522 L 275.436 37.404 L 275.436 33.804 L 275.436 25.812 L 275.436 17.676 L 278.532 17.388 L 278.604 24.228 L 279.108 24.228 A 16.035 16.035 0 0 1 280.198 22.846 Q 280.793 22.166 281.523 21.461 A 29.016 29.016 0 0 1 282.024 20.988 A 15.891 15.891 0 0 1 284.879 18.91 A 19.454 19.454 0 0 1 286.434 18.108 A 12.793 12.793 0 0 1 290.082 17.067 A 16.5 16.5 0 0 1 292.32 16.92 A 16.393 16.393 0 0 1 295.357 17.182 Q 297.074 17.506 298.387 18.232 A 7.443 7.443 0 0 1 300.726 20.232 Q 303.264 23.544 303.264 29.7 L 303.264 33.696 L 303.264 37.404 L 303.264 45.414 L 303.264 53.28 L 299.916 53.28 L 299.916 45.432 L 299.916 37.512 L 299.916 30.168 Q 299.916 27.128 299.229 25.004 A 8.294 8.294 0 0 0 298.134 22.752 A 5.317 5.317 0 0 0 295.719 20.902 Q 294.79 20.525 293.614 20.36 A 14.279 14.279 0 0 0 291.636 20.232 A 12.667 12.667 0 0 0 288.543 20.597 A 10.639 10.639 0 0 0 286.398 21.384 Q 284.076 22.536 282.186 24.48 Q 280.296 26.424 278.784 28.764 L 278.784 37.512 L 278.784 45.522 L 278.784 53.28 Z" id="6" vector-effect="non-scaling-stroke"/>
        <path d="M 345.384 53.28 L 340.596 53.28 Q 337.716 50.724 334.8 48.15 Q 331.884 45.576 329.004 42.984 L 321.696 36.504 L 319.284 36.504 L 319.284 33.804 L 322.164 33.804 L 328.212 28.152 Q 331.02 25.524 333.846 22.878 Q 336.672 20.232 339.444 17.676 L 343.98 17.676 Q 340.596 20.736 337.266 23.832 Q 333.936 26.928 330.624 29.988 L 324.036 36.072 L 323.964 34.272 L 331.452 40.968 Q 334.944 44.028 338.436 47.124 Q 341.928 50.22 345.384 53.28 Z M 319.86 53.28 L 316.512 53.28 L 316.512 45.522 L 316.512 37.404 L 316.512 17.712 L 316.512 8.874 L 316.512 0.612 L 319.86 0 L 319.86 8.712 L 319.86 17.712 L 319.86 37.692 L 319.86 45.612 L 319.86 53.28 Z" id="7" vector-effect="non-scaling-stroke"/>
        <path d="M 381.132 36.324 L 378.18 34.164 Q 378.252 33.588 378.252 33.048 L 378.252 32.004 Q 378.252 28.069 377.024 25.444 A 8.697 8.697 0 0 0 375.282 22.932 A 10.004 10.004 0 0 0 369.512 20.122 A 13.973 13.973 0 0 0 367.488 19.98 A 14.306 14.306 0 0 0 364.163 20.349 A 10.806 10.806 0 0 0 360.576 21.906 A 11.974 11.974 0 0 0 356.581 26.507 A 14.578 14.578 0 0 0 356.238 27.234 Q 354.744 30.636 354.744 34.992 L 354.744 35.352 A 23.224 23.224 0 0 0 355.054 39.241 Q 355.453 41.588 356.364 43.542 Q 357.984 47.016 361.26 48.888 A 13.183 13.183 0 0 0 364.727 50.232 Q 366.3 50.611 368.135 50.718 A 25.429 25.429 0 0 0 369.612 50.76 Q 371.448 50.76 373.32 50.49 Q 375.192 50.22 376.992 49.626 Q 378.792 49.032 380.484 48.06 L 380.7 51.408 A 14.545 14.545 0 0 1 379.03 52.231 A 18.794 18.794 0 0 1 377.55 52.776 A 22.653 22.653 0 0 1 374.964 53.44 A 26.816 26.816 0 0 1 373.698 53.658 Q 371.628 53.964 369.432 53.964 A 25.452 25.452 0 0 1 365.141 53.622 Q 362.697 53.204 360.701 52.274 A 14.242 14.242 0 0 1 359.316 51.534 Q 355.32 49.104 353.34 44.874 A 20.831 20.831 0 0 1 351.594 38.803 A 26.754 26.754 0 0 1 351.36 35.208 Q 351.36 29.88 353.34 25.74 A 16.014 16.014 0 0 1 356.74 20.989 A 14.997 14.997 0 0 1 358.938 19.26 A 14.572 14.572 0 0 1 365.206 17.049 A 18.534 18.534 0 0 1 367.416 16.92 Q 371.7 16.92 374.85 18.684 Q 378 20.448 379.71 23.814 Q 381.345 27.032 381.417 31.517 A 25.909 25.909 0 0 1 381.42 31.932 Q 381.42 33.192 381.366 34.236 Q 381.312 35.28 381.132 36.324 Z M 352.908 36.324 L 381.132 36.324 L 381.132 34.092 L 378.9 33.516 L 352.908 33.588 L 352.908 36.324 Z" id="8" vector-effect="non-scaling-stroke"/>
        <path d="M 395.64 53.28 L 392.292 53.28 L 392.292 45.522 L 392.292 37.404 L 392.292 33.804 L 392.292 25.812 L 392.292 17.676 L 395.388 17.388 L 395.46 25.092 L 395.892 25.092 Q 397.368 21.6 399.42 19.836 Q 401.436 18.103 403.504 17.517 A 8.241 8.241 0 0 1 403.578 17.496 A 18.069 18.069 0 0 1 405.342 17.102 Q 406.221 16.954 407.014 16.926 A 10.336 10.336 0 0 1 407.376 16.92 A 15.414 15.414 0 0 1 408.851 16.988 A 13.091 13.091 0 0 1 409.482 17.064 A 11.793 11.793 0 0 1 411.259 17.461 A 10.898 10.898 0 0 1 411.372 17.496 L 411.048 21.024 Q 410.004 20.736 409.122 20.556 A 8.029 8.029 0 0 0 408.343 20.439 Q 407.959 20.4 407.522 20.385 A 15.934 15.934 0 0 0 406.98 20.376 A 7.938 7.938 0 0 0 406.139 20.424 Q 405.389 20.504 404.478 20.718 Q 403.189 21.02 401.788 21.941 A 12.998 12.998 0 0 0 401.418 22.194 A 9.494 9.494 0 0 0 400.082 23.356 Q 399.178 24.292 398.304 25.614 A 16.195 16.195 0 0 0 397.221 27.549 Q 396.737 28.559 396.297 29.763 A 35.232 35.232 0 0 0 395.64 31.752 L 395.64 37.512 L 395.64 45.522 L 395.64 53.28 Z" id="9" vector-effect="non-scaling-stroke"/>
    </g>
</svg>